<svg xmlns="http://www.w3.org/2000/svg" width="2500" height="2500" viewBox="0 0 192.756 192.756"><g fill-rule="evenodd" clip-rule="evenodd"><path fill="#fff" d="M0 0h192.756v192.756H0V0z"/><path d="M17.381 29.792a8.877 8.877 0 0 0-8.877 8.878v115.417a8.878 8.878 0 0 0 8.877 8.878h157.994a8.879 8.879 0 0 0 8.877-8.878V38.669a8.878 8.878 0 0 0-8.877-8.878H17.381v.001z" fill="#c23c40"/><path d="M82.819 89.882c2.391-17.683 10.274-49.575 25.31-49.575 17.551 0 38.174 58.958 38.17 107.771h-16.188c0-51.196-12.539-97.326-21.562-97.328-9.412-.002-17.661 31.378-17.661 91.162H74.724c0-59.784-8.199-91.162-17.661-91.162-9.006 0-21.538 46.14-21.538 97.328H19.339C19.354 99.223 39.925 40.3 57.508 40.307c15.014.005 22.9 31.888 25.311 49.575z" fill="#e8ae30"/><path fill="#c23c40" d="M72.24 128.461V109.62h74.557v18.841H72.24z"/><path fill="#fff" d="M139.275 111.136h4.692v15.434h-4.692v-15.434zM161.221 111.136h3.193l-1.084 4.206h-2.322l.213-4.206zM169.92 113.422c3.121 0 6.053.788 6.068 3.852h-4.457c0-1.056-.615-1.535-1.656-1.535-.615 0-1.451.256-1.449 1.224 0 1.604 2.537 1.284 4.693 1.924 1.936.574 3.279 1.729 3.279 3.594 0 2.857-2.242 4.438-6.479 4.455-4.441.018-6.111-1.583-6.127-4.455h4.516c0 1.085.674 1.729 1.625 1.729 1.141 0 1.656-.433 1.656-1.238 0-1.678-3.111-1.635-4.945-2.235-1.248-.408-2.383-1.333-2.383-3.298.001-1.642 1.233-4.017 5.659-4.017zM73.838 121.893c-.778 3.068-3.323 5.058-6.498 5.059-3.833 0-6.749-2.9-6.745-7.098.003-4.192 2.594-7.093 6.745-7.097 3.441-.003 5.811 1.996 6.521 5.068l-4.391.001c-.336-.924-.983-1.644-2.131-1.645-1.937 0-2.448 2.053-2.447 3.672 0 1.62.51 3.673 2.447 3.673 1.143 0 1.789-.715 2.126-1.633h4.373zM41.473 111.138h5.605l2.44 9.117 2.44-9.117h5.609l2.451 15.813h-4.625l-1.222-9.241-2.527 9.241h-4.252l-2.527-9.241-1.222 9.241h-4.628l2.458-15.813zM113.367 119.01v7.563h-4.639v-13.484h4.639v1.053c1.174-.914 2.234-1.385 4.641-1.385 2.615 0 4.721 1.747 4.723 3.581v10.235h-4.672v-7.423c.002-1.232-1.102-2.237-2.303-2.237-1.547 0-2.317 1.367-2.389 2.097zM154.746 114.426v-3.29h4.691v15.435h-4.691v-.749c-.615.557-1.424 1.125-3.445 1.125-2.275 0-5.891-1.265-5.893-6.694-.002-5.423 3.613-6.83 6.186-6.83 1.867-.001 2.75.644 3.152 1.003zm-4.867 5.826c0 2.11.98 3.459 2.594 3.459.967 0 1.777-.422 2.275-1.301v-4.049c-.25-.894-1.117-1.553-2.275-1.554-1.616 0-2.594 1.335-2.594 3.445zM93.158 119.855c.003-4.192 2.722-7.094 7.077-7.098 4.354-.004 7.072 2.905 7.074 7.098.004 4.196-2.723 7.097-7.074 7.097s-7.081-2.9-7.077-7.097zm9.764 0c0-1.62-.561-3.672-2.688-3.673-2.129 0-2.689 2.053-2.689 3.673.002 1.619.561 3.672 2.689 3.672 2.127 0 2.688-2.052 2.688-3.672zM75.473 111.138h8.06c5.042 0 8.479 3.132 8.479 7.906s-3.436 7.907-8.479 7.907h-8.06v-15.813zm5.332 12.075h2.437c1.579 0 3.501-.963 3.501-4.169 0-3.202-1.922-4.168-3.501-4.168h-2.437v8.337zM131.098 112.759c3.328-.003 6.072 1.222 6.287 3.909v9.903h-4.695v-1.336c-1.141.978-2.275 1.71-4.328 1.71-2.391 0-4.316-1.889-4.316-4.104s1.365-4.676 6.824-4.675c1.408.001 1.818-.554 1.82-1.213.002-.81-.934-1.263-1.715-1.263s-1.668.326-1.668 1.173h-4.398c-.001-1.987 1.335-4.099 6.189-4.104zm-.262 7.598c-1.082 0-2.084.578-2.084 1.686 0 .717.424 1.336 1.531 1.336 1.059 0 2.189-.628 2.406-1.931v-1.233c-.359.195-1.168.142-1.853.142z"/><path d="M153.475 137.554h2.883c1.426 0 2.377.766 2.377 1.778 0 .936-.721 1.549-1.609 1.626v.03c1.363.46 1.562 1.411 1.578 2.699h-1.287c-.047-1.549-.383-2.224-1.748-2.224h-1.059v2.224h-1.135v-6.133zm1.134 2.928h1.35c1.059 0 1.486-.368 1.486-1.059 0-.521-.32-.89-1.303-.89h-1.533v1.949zm1.227-5.06a5.265 5.265 0 0 1 5.275 5.275c0 2.929-2.361 5.275-5.275 5.275s-5.275-2.347-5.275-5.275a5.265 5.265 0 0 1 5.275-5.275zm0 9.983a4.709 4.709 0 0 0 0-9.416 4.708 4.708 0 0 0 0 9.416z" fill="#e8ae30"/></g></svg>