<?xml version="1.0" encoding="utf-8"?>
<!-- Generator: Adobe Illustrator 21.0.0, SVG Export Plug-In . SVG Version: 6.00 Build 0)  -->
<svg version="1.1" id="Layer_1" xmlns="http://www.w3.org/2000/svg" xmlns:xlink="http://www.w3.org/1999/xlink" x="0px" y="0px"
	 viewBox="0 0 229.3 117.5" style="enable-background:new 0 0 229.3 117.5;" xml:space="preserve">
<style type="text/css">
	.st0{fill:#003056;}
	.st1{fill:#FFFFFF;}
	.st2{fill:#004A97;}
	.st3{fill:#ED1A38;}
</style>
<g>
	<g>
		<path class="st0" d="M219.8,117.5H9.6c-5.3,0-9.6-4.3-9.6-9.6l0-44.6c0-0.3,0-0.8,0.1-1.4c0.4-3.3,1.9-6.1,4.4-8.6
			C5.8,52,7,51.2,7.8,50.6l0.3-0.2l0.1-0.1l0.1-0.1c0.9-0.6,1.9-1.2,3-1.7c0.6-2.5,2-4.8,3.9-6.9c1.6-1.7,3.2-2.8,4.2-3.5l0.2-0.2
			l0.3-0.2c11.4-7.2,24.2-9.9,32.9-11.3L77.8,0l8.8,19.2l21.2-14.6l22,16.9l21.6-18.1l34.5,31.5l12.9-10.6l26.3,22.7
			c2.6,1.8,4.2,4.7,4.2,7.9V108C229.3,113.2,225,117.5,219.8,117.5L219.8,117.5z"/>
		<g>
			<path class="st1" d="M221.3,52l-2.1-1.8l-14-9.8l-2.9-3.5l-6.6,2.7l1.5-5.8l-8.7,7.1l9.9,8.7l-39-21.8l-6.4,4.1l3.1-10l-7.5,0.7
				l2.4-10.6l-21.2,18l-13.1-5.7l-12.2,3.1l3-15.1L83.8,28.6L76,11.3l-20,21.1l-1.7,0.2l-0.1,0c-10.7,1.7-21.4,4.6-30.9,10.6
				l-0.1,0.1l-0.1,0c-0.9,0.7-2.1,1.5-3.3,2.7c-1.1,1.2-2.3,2.8-2.6,5c-0.1,0.4-0.1,0.7-0.1,1.1c0,0.2,0,0.5,0,0.7
				c-1.8,0.7-3.6,1.5-5.4,2.7l0,0l0,0C11,56,10,56.7,8.9,57.8c-1,1-2.3,2.6-2.6,4.8c0,0.3,0,0.5,0,0.7l0,44.6c0,1.8,1.5,3.3,3.3,3.3
				h210.2c1.8,0,3.3-1.5,3.3-3.3V54.9C223,53.6,222.3,52.6,221.3,52z"/>
		</g>
	</g>
	<g>
		<g>
			<path class="st0" d="M108.7,37.7c20.1,1.3,40,3.2,57.5,9.3c5.6,2.2,12.7,5,15,10.1c0.6,1.9-1.5,3.3-3.3,4.3
				c-1.1,0.6-2.2,1-3.4,1.3c1.6-0.7,3.7-1.6,4.1-3.2c-0.1-2-3-2.8-4.8-3.6c-4.8-1.6-9.9-2.6-15-3.5c-5.9-1-11.8-1.8-17.8-2.4
				l-12-1.2l-11.4-0.9l-11.4-0.7c-4.8-0.2-9.7-0.3-14.6-0.4l-4.3-9.7v-0.1l9.6,0.3L108.7,37.7z M49.5,53.3l7.9-7
				c-5.2,0.3-10.5,0.9-15.6,1.6c-5.7,0.9-11.5,1.6-16.7,3.8c-1.4,0.7-3.3,1.6-3.7,3.4c-0.2,0.9,0.3,1.6,0.9,2.1
				c5.7-1.4,11.5-2.3,17.5-3L49.5,53.3z M74.8,106.2h-14l0-57.9l-3.2-2l0,0.1v59.7l-8,0L49.5,60c-2.8-0.4-5.9-0.2-8.9-0.1
				c-9.1,0.6-18,1.6-26.4,4c-1.5,0.6-3.3,1.1-4.4,2.5c-0.2,0.3-0.2,0.7-0.1,1c0.1,0.4,0.6,0.7,0.9,1.1c-1-0.5-2-1.6-1.8-2.7
				c0.3-2.1,2.4-3.5,4-4.6c2.9-1.9,6.1-3,9.4-3.9c-1.1-0.9-2.2-2.2-1.9-3.7c0.3-2.4,2.6-4.1,4.5-5.4c9.3-5.9,19.9-8.8,31-10.5
				l3.3-0.4l15.9-17.6L74.8,106.2z"/>
		</g>
		<path class="st0" d="M44.7,70.9c0.7,0,1.4,0,2.1,0v-3.6c-26.7-0.4-35.5,6.5-35.5,6.5v32.4l35.5,0l-0.1-23.6c-0.8,0-1.5,0-2.1,0
			c-7.3,0-13.3,0.6-18,1.3l0-1.3c4.8-0.8,10.7-1.3,18-1.3c0.7,0,1.4,0,2.1,0v-4.2c-0.8,0-1.5,0-2.1,0c-15.8,0-25.2,2.6-29.9,4.5
			l0-1.4c5-1.9,14.5-4.4,29.9-4.4c0.7,0,1.4,0,2.1,0v-3.6c-0.8,0-1.5,0-2.1,0c-15.9,0-25.2,2.6-30,4.5l0.1-1.4
			C19.8,73.3,29.2,70.9,44.7,70.9z"/>
	</g>
	<g>
		<g>
			<g>
				<path class="st2" d="M139.3,103.3c-0.3,0.2-0.7,0.3-1,0.4c-0.3,0.1-0.7,0.2-1,0.2c-0.3,0-0.7,0.1-1.1,0.1
					c-0.7,0-1.3-0.1-1.8-0.3c-0.5-0.2-1-0.5-1.4-0.8c-0.4-0.4-0.7-0.8-0.9-1.3c-0.2-0.5-0.3-1-0.3-1.6c0-0.7,0.1-1.3,0.3-1.8
					c0.2-0.5,0.6-0.9,1-1.3c0.4-0.3,0.9-0.6,1.4-0.7c0.5-0.2,1.1-0.2,1.7-0.2c0.9,0,1.9,0.2,3,0.6v2.1c-0.4-0.2-0.8-0.4-1.1-0.6
					c-0.4-0.2-0.8-0.2-1.3-0.2c-0.5,0-0.9,0.1-1.3,0.3c-0.4,0.2-0.7,0.4-1,0.8c-0.2,0.3-0.4,0.7-0.4,1.2c0,0.4,0.1,0.8,0.3,1.1
					c0.2,0.3,0.5,0.6,0.9,0.8c0.4,0.2,0.8,0.3,1.3,0.3c0.4,0,0.7,0,1.1-0.1c0.3-0.1,0.6-0.2,0.9-0.3c0.2-0.1,0.5-0.2,0.7-0.4V103.3z
					"/>
				<path class="st2" d="M152.9,103.9h-5.9v-7.8h5.8v1.6h-3.4v1.4h3.3v1.6h-3.3v1.7h3.5V103.9z"/>
				<path class="st2" d="M169.2,103.9h-2.1l-4.1-4.4v4.4h-2.3v-7.8h2.1l4,4.3v-4.3h2.3V103.9z"/>
				<path class="st2" d="M184.8,98h-2.9v5.9h-2.4V98h-2.9v-1.9h8.1V98z"/>
				<path class="st2" d="M198.2,103.9h-5.9v-7.8h5.8v1.6h-3.4v1.4h3.3v1.6h-3.3v1.7h3.5V103.9z"/>
				<path class="st2" d="M213.5,103.9H211l-0.6-1.4c-0.2-0.5-0.4-0.9-0.6-1.1c-0.2-0.2-0.4-0.4-0.5-0.5c-0.2-0.1-0.4-0.1-0.7-0.1
					h-0.3v3.1H206v-7.8h4c0.6,0,1.2,0.1,1.6,0.4c0.4,0.3,0.7,0.6,0.9,1c0.2,0.4,0.3,0.7,0.3,1.1c0,0.4-0.1,0.7-0.2,1
					c-0.2,0.3-0.3,0.5-0.5,0.6c-0.2,0.1-0.4,0.2-0.6,0.4c0.3,0.1,0.5,0.3,0.6,0.5c0.2,0.2,0.4,0.6,0.7,1.2L213.5,103.9z M210.3,98.6
					c0-0.4-0.1-0.6-0.4-0.8c-0.2-0.1-0.6-0.2-1.2-0.2h-0.5v1.9h0.5c0.6,0,1-0.1,1.2-0.2C210.2,99.2,210.3,98.9,210.3,98.6z"/>
			</g>
		</g>
		<g>
			<g>
				<g>
					<g>
						<g>
							<path class="st2" d="M169.6,77.6L169.6,77.6c0-0.2,0-0.5-0.1-0.8c-0.1-0.5-0.2-1.1-0.4-1.6c-1.2-3.9-4.6-6.5-8.5-6.5
								c-0.4,0-0.8,0-1.2,0.1c-5,0.6-8.4,5.2-7.8,10.4c0.6,4.7,4.4,7.9,9,7.9c0.4,0,0.8,0,1.2-0.1c2.4-0.3,4.6-1.3,6.2-3.3
								c0.1-0.1,0.1-0.3,0.1-0.4c0-0.1-0.1-0.2-0.2-0.3c-0.3-0.2-1.2-0.7-1.8-0.9c-0.2-0.1-0.3-0.1-0.3-0.2
								c-0.2-0.1-0.3-0.1-0.4-0.1c-0.1,0-0.2,0.1-0.4,0.2c-1,1.2-2.3,1.8-3.7,2c-0.3,0-0.5,0-0.8,0c-2.4,0-4.9-1.6-5.6-3.9l0-0.1
								l0.1,0c0.1-0.1,1.3-0.6,3-0.6c0.2,0,0.4,0,0.6,0c0.5,0,1,0.1,1.5,0.2c0.9,0.1,1.9,0.3,3.1,0.3c0.7,0,1.4-0.1,2.1-0.2
								c2.8-0.5,3.9-1.3,3.9-1.3C169.6,78.2,169.6,78,169.6,77.6 M166.4,76.4c-0.5,0.1-1.1,0.3-1.9,0.4c-0.4,0-0.8,0.1-1.3,0.1
								c-0.8,0-1.7-0.1-2.6-0.1l0,0c-0.8-0.1-1.5-0.1-2.3-0.1c-0.5,0-1,0-1.4,0.1c-1.3,0.2-2.4,0.6-2.4,0.6l0-0.1
								c0.3-2.7,2.5-5,5.3-5.4c0.3,0,0.5,0,0.8,0C163.2,71.8,165.8,73.8,166.4,76.4L166.4,76.4L166.4,76.4z"/>
							<g>
								<path class="st2" d="M213.4,69.7c0-0.2-0.2-0.4-0.4-0.4h-2.3c-0.2,0-0.4,0.2-0.4,0.4v16.4c0,0.2,0.2,0.4,0.4,0.4h2.3
									c0.2,0,0.4-0.2,0.4-0.4V69.7z"/>
								<path class="st2" d="M211.8,63.5c-1.2,0-2.1,0.9-2.1,2.1c0,1.1,0.9,2.1,2.1,2.1c1.2,0,2.1-0.9,2.1-2.1
									C213.9,64.4,213,63.5,211.8,63.5"/>
							</g>
							<path class="st2" d="M181.1,87.1c0.1,0,0.3,0,0.4,0c2.4,0,4.6-0.9,6.2-2.6c1.7-1.7,2.6-4,2.6-6.5c0-5.2-4-9.3-9.1-9.3
								c-4.2,0-7.7,2.7-8.7,6.8c-0.2,0.7-0.4,2.5-0.4,4.2v12.9c0,0.2,0.2,0.4,0.4,0.4h2.3c0.2,0,0.4-0.2,0.4-0.4l0-8.1l0.1,0.1
								C176.5,85.7,178.6,86.9,181.1,87.1 M181.2,71.8c3.3,0,5.8,2.7,5.8,6.1c0,3.5-2.4,6.1-5.7,6.1c-1.6,0-3.1-0.6-4.3-1.6
								c-1.1-1.1-1.8-2.6-1.8-4.3C175.3,74.6,178,71.8,181.2,71.8"/>
							<path class="st2" d="M139.9,87.1c0.1,0,0.3,0,0.4,0c2.4,0,4.6-0.9,6.2-2.6c1.7-1.7,2.6-4,2.6-6.5c0-5.2-4-9.3-9.1-9.3
								c-4.2,0-7.7,2.7-8.7,6.8c-0.2,0.7-0.4,2.5-0.4,4.2v12.9c0,0.2,0.2,0.4,0.4,0.4h2.3c0.2,0,0.4-0.2,0.4-0.4l0-8.1l0.1,0.1
								C135.3,85.7,137.4,86.9,139.9,87.1 M140,71.8c3.3,0,5.8,2.7,5.8,6.1c0,3.5-2.4,6.1-5.7,6.1c-1.6,0-3.1-0.6-4.2-1.6
								c-1.1-1.1-1.8-2.6-1.8-4.3C134.1,74.6,136.7,71.8,140,71.8"/>
							<path class="st2" d="M192.5,84.2c2,1.8,4.2,2.9,7,2.9h0.1c4.9,0,7.1-2.7,7.1-5.3c0-3.6-3.4-4.6-4.5-4.9
								c-0.3-0.1-0.7-0.1-1-0.2c-0.9-0.2-1.7-0.3-2.5-0.6c-0.6-0.2-2.4-0.8-2.4-2.1c0-1.5,1.7-2.3,3.3-2.3c1.3,0,2.4,0.2,3.8,1.3
								c0.1,0.1,0.3,0.2,0.5,0.2c0.1,0,0.3,0,0.4-0.2c0.4-0.3,1.1-0.9,1.6-1.4c0.1-0.1,0.2-0.2,0.2-0.4c0-0.2-0.2-0.4-0.2-0.4
								c-1.9-1.5-3.7-2.1-6.3-2.1h0c-3.7,0-6.4,2.4-6.4,5.5c0,2.5,2,4.2,5.7,5l2.3,0.4c1.5,0.3,2.4,1.1,2.3,2.2
								c0,1.1-1.4,2.2-3.6,2.2c-1.8,0-3.4-0.7-4.7-1.9l0,0c-0.1-0.1-0.2-0.2-0.4-0.2c-0.1,0-0.2,0-0.3,0.1c-0.1,0.1-1.7,1.3-1.8,1.5
								c-0.1,0.1-0.1,0.2-0.1,0.3C192.4,84,192.5,84.1,192.5,84.2"/>
						</g>
						<g>
							<path class="st2" d="M216.7,83.2c1.1,0,1.9,0.9,1.9,1.9c0,1.1-0.8,1.9-1.9,1.9c-1.1,0-1.9-0.9-1.9-1.9
								C214.8,84.1,215.6,83.2,216.7,83.2z M216.7,86.7c0.9,0,1.6-0.7,1.6-1.6c0-0.9-0.7-1.6-1.6-1.6c-0.9,0-1.6,0.7-1.6,1.6
								C215.1,86,215.8,86.7,216.7,86.7z M217,85.4c0.3-0.1,0.4-0.3,0.4-0.6c0-0.3-0.2-0.6-0.6-0.6H216v1.9h0.4v-0.7h0.1l0.5,0.7
								h0.5L217,85.4z M216.8,84.6c0.2,0,0.2,0.1,0.2,0.3c0,0.1-0.1,0.3-0.3,0.3h-0.4v-0.5H216.8z"/>
						</g>
					</g>
				</g>
			</g>
			<path class="st1" d="M117.7,92.4c-8,8-21,8-29.1,0c-8-8-8-21,0-29.1c8-8,21-8,29.1,0C125.7,71.4,125.7,84.4,117.7,92.4"/>
			<path class="st2" d="M119.6,67.3c0.4,1.3,0.6,2.6,0.6,4c0,4.5-2.2,8.5-5.6,11c-5.9,4.3-14.5,4.3-26.4,8.1c3.6,4.3,9,7,15,7
				c10.8,0,19.5-8.7,19.5-19.5C122.7,74,121.5,70.3,119.6,67.3"/>
			<path class="st3" d="M114.9,62.3c-3.3-2.5-7.3-3.9-11.7-3.9c-10.8,0-19.5,8.7-19.5,19.5c0,4.3,1.4,8.3,3.8,11.6
				C100.6,85.6,111,75.3,114.9,62.3"/>
		</g>
	</g>
</g>
</svg>
