<svg xmlns="http://www.w3.org/2000/svg" viewBox="0 0 457.6 127.13"><defs><style>.cls-1{fill:#fff;}.cls-2{fill:#046aa9;}.cls-3{fill:#ed3b43;}</style></defs><title>buf-logo-pepsi-white</title><g id="Layer_1" data-name="Layer 1"><path class="cls-1" d="M58,123.9a57.5,57.5,0,1,1,57.5-57.5A57.57,57.57,0,0,1,58,123.9Z" transform="translate(0 -4.27)"/><path class="cls-2" d="M58,10.8A55.5,55.5,0,1,1,2.5,66.4,55.57,55.57,0,0,1,58,10.8m0-2.5a58,58,0,1,0,58,58,58,58,0,0,0-58-58Z" transform="translate(0 -4.27)"/><path class="cls-3" d="M88.5,25.9a12.67,12.67,0,0,1-1.3-1.1A49.79,49.79,0,0,0,58,15.5,50.83,50.83,0,0,0,7.2,66.4,50.25,50.25,0,0,0,17.3,96.8,104.19,104.19,0,0,0,61.9,70.4,104.67,104.67,0,0,0,88.5,25.9Z" transform="translate(0 -4.27)"/><path class="cls-2" d="M58,117.2a50.84,50.84,0,0,0,43-77.9c-.1-.1-.2-.3-.3-.4a37.1,37.1,0,0,1,1.6,10.5,34.19,34.19,0,0,1-4,16.3A36.14,36.14,0,0,1,87.6,78a54.92,54.92,0,0,1-12.8,6.7,116,116,0,0,1-15.6,4.4L40.6,93.3C32.7,95.1,25.5,97,19.1,99A50.52,50.52,0,0,0,58,117.2Z" transform="translate(0 -4.27)"/></g><g id="Layer_2" data-name="Layer 2"><path class="cls-1" d="M399,78.25l1.69-5-2-4.25,9.22,10.18-1.38,6.54-2.75-5.86Zm-7.27-13.1A6.84,6.84,0,0,0,393,62c0-.18,0-.39.05-.59v-.52a7.64,7.64,0,0,0-.35-2.19,6.42,6.42,0,0,0-1.12-2.05,6.66,6.66,0,0,0-1.77-1.5,7.87,7.87,0,0,0-2.09-.81,9.55,9.55,0,0,0-1.07-.18,8.8,8.8,0,0,0-1,0,16.27,16.27,0,0,1,.13-3,26.5,26.5,0,0,1,.85-4c.19-.66.4-1.32.63-2,.11-.32.23-.65.35-1s.26-.65.38-.93h0a1.07,1.07,0,0,0-1.74-1.18h0c-.54.56-1.07,1.13-1.57,1.73s-1,1.21-1.43,1.85a26,26,0,0,0-2.35,4.06,23.51,23.51,0,0,0-1.52,4.49A20.36,20.36,0,0,0,379,56.6c0,.4-.07.8-.08,1.21v.61c0,.2,0,.37,0,.6a13.5,13.5,0,0,0,.56,3.86,9.17,9.17,0,0,0,.82,1.92,6.92,6.92,0,0,0,1.41,1.72,5.71,5.71,0,0,0,2,1.13,5.64,5.64,0,0,0,1.12.25l.31,0,.27,0H386a7.82,7.82,0,0,0,4.12-1.25A6.59,6.59,0,0,0,391.74,65.15Zm65.81-.55c0-.71-.11-1.42-.2-2.13h0a1,1,0,0,0-1.93-.1c-.06.28-.15.6-.23.9s-.18.61-.28.91c-.19.61-.39,1.21-.62,1.8a25.43,25.43,0,0,1-1.58,3.43,13.09,13.09,0,0,1-2.17,2.94,6.38,6.38,0,0,1-1.74,1.22,71.6,71.6,0,0,0,1.9-9.21c1.9-14.11-1.66-24.85-10.29-31a41.93,41.93,0,0,0-7.68-4.38,25.31,25.31,0,0,0-3.24-7.19C421.83,10,406.12,6,394.29,4.64c-36-4-98.45,25.81-109.77,31.39l3.91,0a78.05,78.05,0,0,0,29.93-5.58c23.24-9.36,54.43-19.66,74.82-17.41,16.51,1.83,24.25,7.37,27.87,12.46a59.23,59.23,0,0,0-15.93-.23,15.58,15.58,0,0,0-12.27,8.86c.21-.06,26.71-4.91,42.36,6.34,5.84,4.21,8.09,11.77,6.69,22.48a68.2,68.2,0,0,1-4,15.13l-4.14,2.66-.32,2c0,.11-1.75,10.33-9.66,16.1l-.58.43-4.73,6.64-10.57-2.1-6.48-3.3-.17,10.8.07-.07-.07.32,8.44,1.67c-.56,1.4-2.12,4.25-6.17,7-2-4.88-6.37-12.55-15.94-19.55l0,0a8.27,8.27,0,0,0,.92,10.76c7.68,7.63,8.93,14.63,9,15l.76,5,4.62-2.11a28.74,28.74,0,0,0,12-9.6,18.16,18.16,0,0,0,2.42-5l5.1,1,7.25-10.17c8.08-6.22,11.15-15.33,12.17-19.4l3.22-2.06.54-1.22.08-.18a6.13,6.13,0,0,0,.86.11,5.78,5.78,0,0,0,1.76-.16,7.74,7.74,0,0,0,3-1.47A11.62,11.62,0,0,0,453.42,79l.35-.42.34-.46c.21-.31.41-.62.6-.94a18.07,18.07,0,0,0,1-2,21.21,21.21,0,0,0,1.36-4.15,23.14,23.14,0,0,0,.5-4.3C457.61,66,457.59,65.32,457.55,64.6Z" transform="translate(0 -4.27)"/><path class="cls-1" d="M173,44h-15l-6.11,34.67H167c7.81,0,13.18-4,14.36-10.65a8,8,0,0,0-3.55-8,10,10,0,0,0,4.37-6.39,7.81,7.81,0,0,0-1.61-6.5A9.66,9.66,0,0,0,173,44Zm-9.25,20.45h5a3.26,3.26,0,0,1,2.57.94,2.39,2.39,0,0,1,.42,2,4.09,4.09,0,0,1-4.31,3.18h-4.74ZM169,57h-4l.86-4.89h4.22a2.68,2.68,0,0,1,2.12.8,1.82,1.82,0,0,1,.36,1.52A3.45,3.45,0,0,1,169,57Z" transform="translate(0 -4.27)"/><path class="cls-1" d="M205.81,62.85c-.91,5.19-3.28,7.6-7.46,7.6-1.84,0-3.1-.44-3.87-1.36-1-1.16-1.22-3.18-.72-6L197.13,44h-1.6a9.29,9.29,0,0,0-9.15,7.67l-2,11.4c-.9,5.12-.11,9.33,2.28,12.18,2.25,2.67,5.83,4.09,10.38,4.09,9.42,0,16.36-6.15,18.1-16L218.54,44h-1.61a9.28,9.28,0,0,0-9.14,7.67Z" transform="translate(0 -4.27)"/><path class="cls-1" d="M228.2,66.51h5.05a8.57,8.57,0,0,0,8.43-7.07l.26-1.49H229.71l.91-5.13h15.74L247.92,44H222.78l-6.11,34.67h9.4Z" transform="translate(0 -4.27)"/><path class="cls-1" d="M270.7,59.44,271,58H258.73l.91-5.13h15.74L277,44H251.8l-6.11,34.67h9.4l2.14-12.13h5A8.56,8.56,0,0,0,270.7,59.44Z" transform="translate(0 -4.27)"/><path class="cls-1" d="M294,44h0a14.73,14.73,0,0,0-12.77,7.38L265.52,78.64h10.23l2.82-5.23h12.19a6.42,6.42,0,0,0,6.3,5.23h4.73ZM289.16,65h-6l3-5.44c.5-.9,1.08-2.05,1.55-3,.12.92.28,2,.45,2.81Z" transform="translate(0 -4.27)"/><path class="cls-1" d="M315.83,69.79,320.38,44H311l-6.11,34.67h17.58a9,9,0,0,0,8.87-7.44l.25-1.41Z" transform="translate(0 -4.27)"/><path class="cls-1" d="M366.19,48.47a15.18,15.18,0,0,0-11.93-5.17,21.69,21.69,0,0,0-21,17.88c-.88,5,.18,9.62,3,13a15.11,15.11,0,0,0,11.88,5.15A21.72,21.72,0,0,0,369.2,61.42C370.08,56.43,369,51.83,366.19,48.47Zm-23.25,13c.94-5.29,4.93-8.84,9.93-8.84a6.73,6.73,0,0,1,5.38,2.17c1.3,1.54,1.73,3.77,1.26,6.43-.93,5.29-4.93,8.85-10,8.85a6.69,6.69,0,0,1-5.33-2.16A7.82,7.82,0,0,1,342.94,61.42Z" transform="translate(0 -4.27)"/><path class="cls-1" d="M257.93,86.54h-13l-6.12,34.67h9.4l1.91-10.84h3l1.93,4.89a9.39,9.39,0,0,0,8.74,5.95h4.06l-5.35-12.61A13.22,13.22,0,0,0,270,98.76a9.93,9.93,0,0,0-1.85-8.38C266.06,87.87,262.52,86.54,257.93,86.54Zm-5.16,8.85h4.94a2.63,2.63,0,0,1,2.13.81,2.84,2.84,0,0,1,.49,2.32,4,4,0,0,1-4,3.38h-4.7Z" transform="translate(0 -4.27)"/><path class="cls-1" d="M292.06,85.87a21.7,21.7,0,0,0-21,17.88c-.88,5,.19,9.62,3,13A15.13,15.13,0,0,0,286,121.88,21.73,21.73,0,0,0,307,104c.88-5-.19-9.6-3-13A15.18,15.18,0,0,0,292.06,85.87ZM280.75,104c.93-5.29,4.92-8.85,9.92-8.85a6.74,6.74,0,0,1,5.39,2.17c1.29,1.54,1.73,3.77,1.26,6.43-.93,5.29-4.94,8.85-10,8.85a6.66,6.66,0,0,1-5.32-2.16A7.77,7.77,0,0,1,280.75,104Z" transform="translate(0 -4.27)"/><path class="cls-1" d="M329.17,95.15A7,7,0,0,1,335,97.92l.27.43,9.75-2.46-.28-.72c-2.16-5.73-7.6-9.3-14.21-9.3a21.7,21.7,0,0,0-21,17.88c-.88,5,.19,9.62,3,13a15.12,15.12,0,0,0,11.89,5.15,21.75,21.75,0,0,0,18-10.12L343,111l-9.08-2.46-.28.36a10.26,10.26,0,0,1-7.75,3.63,6.73,6.73,0,0,1-5.38-2.17c-1.28-1.52-1.71-3.71-1.24-6.33C320.18,98.71,324.17,95.15,329.17,95.15Z" transform="translate(0 -4.27)"/><path class="cls-1" d="M370.51,86.54l-9.7,8.2c-1.7,1.45-2.9,2.49-3.7,3.21.22-1.12.54-2.77,1-5.18l1.1-6.23h-9.39l-6.12,34.67h9.4l2-11.36,2.47-2.09,4.67,8.46a9.69,9.69,0,0,0,8.47,5H376l-11.16-19.65,17.62-15Z" transform="translate(0 -4.27)"/></g></svg>